<svg xmlns="http://www.w3.org/2000/svg" xmlns:xlink="http://www.w3.org/1999/xlink" viewBox="0 0 698.12 413.88"><defs><style>.cls-1{fill:#101010;}.cls-2{fill:#262722;}.cls-3{fill:#e8af94;}.cls-10,.cls-4,.cls-5,.cls-6{fill:#944660;}.cls-5{stroke:#b15a82;stroke-width:0.91px;}.cls-10,.cls-11,.cls-12,.cls-13,.cls-14,.cls-16,.cls-19,.cls-21,.cls-23,.cls-27,.cls-33,.cls-37,.cls-45,.cls-46,.cls-47,.cls-49,.cls-5,.cls-6{stroke-linecap:round;stroke-linejoin:round;}.cls-11,.cls-6{stroke:#d4688f;stroke-width:0.95px;}.cls-7{fill:#1e0b02;}.cls-8{fill:#aa6b80;}.cls-9{fill:#e0a78f;}.cls-10,.cls-14,.cls-21,.cls-37,.cls-47{stroke:#000;}.cls-10{stroke-width:0.87px;}.cls-11,.cls-12,.cls-13,.cls-14,.cls-16,.cls-19,.cls-21,.cls-23,.cls-25,.cls-27,.cls-31,.cls-33,.cls-45,.cls-46,.cls-47,.cls-49{fill:none;}.cls-12,.cls-13{stroke:#b9635e;}.cls-12{stroke-width:0.64px;}.cls-13,.cls-14{stroke-width:0.66px;}.cls-15{fill:#e8b499;}.cls-16,.cls-45,.cls-46{stroke:#c47268;}.cls-16{stroke-width:0.69px;}.cls-17{fill:#da4412;}.cls-18,.cls-24{fill:#fff;}.cls-19{stroke:#494949;}.cls-19,.cls-21,.cls-37{stroke-width:0.95px;}.cls-20{fill:#b9c972;}.cls-22{fill:#6f493a;}.cls-23{stroke:#1e0b02;stroke-width:0.96px;}.cls-24{opacity:0.23;}.cls-25,.cls-31{stroke:#fff;stroke-miterlimit:10;}.cls-25{stroke-width:0.49px;}.cls-26{fill:#a74b22;}.cls-27{stroke:#4e8985;}.cls-27,.cls-31{stroke-width:1.94px;}.cls-28{fill:#e6a9a0;}.cls-29{fill:#4e8985;}.cls-30{fill:#eec86a;}.cls-32{fill:#c67d69;}.cls-33{stroke:#a8523f;stroke-width:0.75px;}.cls-34{clip-path:url(#clip-path);}.cls-35{clip-path:url(#clip-path-2);}.cls-36,.cls-37{fill:#4a5f71;}.cls-38{fill:#8198ac;}.cls-39{fill:#627e97;}.cls-40{fill:#cf7c6c;}.cls-41{clip-path:url(#clip-path-3);}.cls-42{fill:#2a3749;}.cls-43{clip-path:url(#clip-path-4);}.cls-44{fill:#de9a8c;}.cls-45{stroke-width:0.75px;}.cls-46,.cls-47{stroke-width:0.7px;}.cls-48{fill:#6c86ab;}.cls-49{stroke:#5a6fb1;stroke-width:0.67px;}</style><clipPath id="clip-path"><path id="_Clipping_Path_" data-name="&lt;Clipping Path&gt;" class="cls-1" d="M388.51,382.75s10.93,6.37,16.38-3.61l40,21.23L382.6,400Z"/></clipPath><clipPath id="clip-path-2"><path id="_Clipping_Path_2" data-name="&lt;Clipping Path&gt;" class="cls-1" d="M350.83,382.75s-10.93,6.37-16.38-3.61l-40,21.23,62.29-.38Z"/></clipPath><clipPath id="clip-path-3"><path id="_Clipping_Path_3" data-name="&lt;Clipping Path&gt;" class="cls-1" d="M85.1,393.28s8,5.05,12.28-2.71l31.07,16.49-48.4-.3Z"/></clipPath><clipPath id="clip-path-4"><path id="_Clipping_Path_4" data-name="&lt;Clipping Path&gt;" class="cls-1" d="M63.06,393.28s-8,5.05-12.28-2.71L19.7,407.06l48.4-.3Z"/></clipPath></defs><title>Asset 3</title><g id="Layer_2" data-name="Layer 2"><g id="OBJECTS"><path class="cls-2" d="M677.59,396.68l9.73,5.36a2.81,2.81,0,0,1,1.34,3.1c-.25,1-1.08,1.72-3.25,1.76-4.81.1-26.1-3.45-26.1-3.45v2.74l-9.95,0s-.62-14.12,2.39-16Z"/><path class="cls-3" d="M664.56,387.94l13,8.74s-1.68,4.81-9.11,1.6-16.73-8-16.73-8l1.36-3.66Z"/><polygon class="cls-3" points="653.11 386.58 651.75 346.05 664.67 346.9 664.67 392.15 653.11 386.58"/><path class="cls-2" d="M566.92,396.68,557.19,402a2.81,2.81,0,0,0-1.34,3.1c.25,1,1.08,1.72,3.25,1.76,4.81.1,26.1-3.45,26.1-3.45v2.86l9.81-.12s.76-14.09-2.25-15.94Z"/><path class="cls-3" d="M580,387.94l-13,8.74s1.68,4.81,9.11,1.6,16.73-8,16.73-8l-1.36-3.66Z"/><polygon class="cls-3" points="591.4 386.58 601.61 346.05 588.68 346.9 578.72 393.07 591.4 386.58"/><path class="cls-4" d="M657.64,162.65s17.64,25.28,17.17,52.91-6.25,158.74-6.25,158.74h-21L640.9,203l-2.77-.17L600.19,374.37l-19.6-2.08,22.78-155.13a126.16,126.16,0,0,1,8.11-29c3.32-8,7.87-17,13.55-24Z"/><line class="cls-5" x1="631.87" y1="204.28" x2="645.3" y2="201.94"/><line class="cls-6" x1="621.22" y1="179.28" x2="614.75" y2="197.92"/><path class="cls-7" d="M611.38,56.29S609.91,71,593.21,82.85c-17.81,12.63-4.54,47.58,28.16,46,35.52-1.77,50.26-47.4,27.09-82.06Z"/><path class="cls-8" d="M636.29,99.71l-21.53,6c-6.21,1.75-11.19,8.34-9.31,14.51l19.38,43.86,32.8-1.49,11.53-47.52c1-6.46-5.71-12.32-12.2-13.06Z"/><path class="cls-9" d="M614.76,105.76l21.53-6L657,102.06l-.43.36a36.16,36.16,0,0,1-41.78,3.33Z"/><path class="cls-9" d="M684.63,158.48l-24.51,21.75,4.29,7.4,28.3-17.25a11.38,11.38,0,0,0,4.63-13.73q-.15-.37-.33-.74l-3.28-6.84Z"/><path class="cls-4" d="M677.07,115.49l20.39,34.88a4.67,4.67,0,0,1-2.87,6.16l-9.83,3.26a4.05,4.05,0,0,1-4.23-1.06c-3.62-3.85-19.51-16-19-30.78l-5.65-10.12L657,102.06C667.51,103.34,675.12,110.68,677.07,115.49Z"/><line class="cls-10" x1="663.75" y1="138.38" x2="668.31" y2="123.39"/><path class="cls-9" d="M668.31,181.3c-.54.48-3.74,14.72-3.74,14.72l-4.45-15.78Z"/><line class="cls-11" x1="659.56" y1="178.4" x2="665.14" y2="198.01"/><path class="cls-4" d="M598.12,120l-16.26,37a4.67,4.67,0,0,0,3.55,5.79l7.67,1.73c1.55.32,2.5,4,3.45,2.73,3.15-4.24,20.66-22,18.46-36.64l4.45-10.7-4.68-14.16C604.44,108.23,599.51,115,598.12,120Z"/><line class="cls-10" x1="613.98" y1="141.24" x2="607.73" y2="126.87"/><path class="cls-9" d="M560.35,117.32l-7.64,3.13,30.78,44a8.51,8.51,0,0,0,13,2.78h0a8.51,8.51,0,0,0,1.4-11.67Z"/><path class="cls-9" d="M560.7,119.53l1.55-2.31a8.5,8.5,0,0,0,1.38-5.77l-.69-5.65s-.31-3-6-1-6,2.1-5.54,3.81c0,0,1.58,2.16,5.43,1.84Z"/><path class="cls-9" d="M553.54,122s-6.42-1.94-8.86-11.92a3.44,3.44,0,0,1,.88-3.22c1.28-1.3,5-4.69,7.67-3.61l5.15,4.32,2.32,12Z"/><path class="cls-9" d="M558.84,105.62l-.3-16.86a1.84,1.84,0,0,0-1.84-1.81h0a1.84,1.84,0,0,0-1.83,1.81l-.18,12.84-1.3.55L546,90.79a1.67,1.67,0,0,0-2.37-.45h0a1.67,1.67,0,0,0-.52,2.13l8.31,16.14Z"/><path class="cls-12" d="M558.82,104.28s-8,1-7.38,4.33c0,0,.37,2.55,5.43,1.84a4.78,4.78,0,0,0-2.29,5"/><circle class="cls-9" cx="616.37" cy="73.36" r="5.91" transform="translate(-4.34 69.66) rotate(-6.45)"/><path class="cls-13" d="M613,72.81s2.25-1.34,4.82,2.54"/><circle class="cls-9" cx="649.68" cy="70.55" r="5.91" transform="translate(-3.63 54.92) rotate(-4.83)"/><path class="cls-13" d="M652.92,69.34s-2.47-.87-4.23,3.44"/><ellipse class="cls-7" cx="631.65" cy="57.63" rx="20.35" ry="18.99" transform="translate(-2.61 53.35) rotate(-4.83)"/><path class="cls-9" d="M639.7,83.24a14.17,14.17,0,0,1-4.63,3.33c-2.28.77-4.69-.8-4.72-.82l-2.89-1.81.55,19.49.33.3c4.31,3.91,10,3.49,13.63-1l.53-.66Z"/><path class="cls-7" d="M625.41,81.53S629.64,92.59,635.47,92c4.79-.5,5.23-11.18,5.23-11.18Z"/><path class="cls-9" d="M648,59.59a67.66,67.66,0,0,1-.49,15.95c-.59,3.91-3,6.81-6.47,9.29l-.64.45a13.38,13.38,0,0,1-12.93,1.29h0c-4.2-1.85-7.27-4.52-8.5-8.54a98.81,98.81,0,0,1-3.15-15.56S613,45.34,630.41,44.1,648,59.59,648,59.59Z"/><polyline class="cls-13" points="631.26 69.88 631.47 72.37 633.17 72.23"/><path d="M618.72,61.92l9.11-1.6s-1-2.31-4.7-1.61S618.72,61.92,618.72,61.92Z"/><path d="M643.94,59.79l-9.25-.05s.62-2.45,4.36-2.37S643.94,59.79,643.94,59.79Z"/><circle class="cls-7" cx="624.91" cy="67.02" r="1.41" transform="translate(-3.42 52.81) rotate(-4.83)"/><circle class="cls-7" cx="638.69" cy="65.86" r="1.41" transform="translate(-3.28 53.97) rotate(-4.83)"/><path class="cls-14" d="M627.47,76.27s4.08,1.8,10.19-.86"/><path class="cls-7" d="M647.67,55.67s-25.47,3.11-25.65-12C622,43.71,643.75,35.52,647.67,55.67Z"/><path class="cls-7" d="M615.11,58.43s8.66-4.51,7.88-13.71C623,44.72,613.88,46.56,615.11,58.43Z"/><circle class="cls-15" cx="211.31" cy="76.06" r="6.16" transform="translate(-2.06 6) rotate(-1.62)"/><path class="cls-16" d="M207.81,75.19s2.45-1.19,4.78,3.06"/><circle class="cls-15" cx="246.12" cy="76.06" r="6.16"/><path class="cls-16" d="M249.59,75.09s-2.48-1.12-4.7,3.2"/><circle class="cls-17" cx="228.54" cy="64.32" r="19.35"/><polygon class="cls-15" points="212.1 362.49 210.17 389.17 198.66 389.55 197.88 356.68 212.1 362.49"/><path id="_Clipping_Path_5" data-name="&lt;Clipping Path&gt;" class="cls-17" d="M210.7,386.14s-8,5.05-12.28-2.71l-31.07,16.49,48.4-.3Z"/><rect class="cls-18" x="167.36" y="399.77" width="48.4" height="4.23" transform="translate(-2.46 1.18) rotate(-0.35)"/><path class="cls-18" d="M194.73,391.5a.81.81,0,0,1-.34-.26,16.77,16.77,0,0,0-3.79-3.69.75.75,0,0,1-.22-1.07.85.85,0,0,1,1.12-.22,18,18,0,0,1,4.2,4.07.75.75,0,0,1-.18,1.08A.85.85,0,0,1,194.73,391.5Z"/><path class="cls-18" d="M190.78,393.47a.81.81,0,0,1-.34-.26,16.77,16.77,0,0,0-3.79-3.69.75.75,0,0,1-.22-1.07.84.84,0,0,1,1.12-.22,18,18,0,0,1,4.2,4.07.75.75,0,0,1-.18,1.08A.85.85,0,0,1,190.78,393.47Z"/><path class="cls-18" d="M186.82,395.45a.81.81,0,0,1-.34-.26,16.78,16.78,0,0,0-3.79-3.69.75.75,0,0,1-.22-1.07.84.84,0,0,1,1.12-.22,18,18,0,0,1,4.2,4.07.75.75,0,0,1-.18,1.08A.85.85,0,0,1,186.82,395.45Z"/><polygon class="cls-15" points="243.78 362.49 245.72 389.17 257.23 389.55 258 356.68 243.78 362.49"/><path id="_Clipping_Path_6" data-name="&lt;Clipping Path&gt;" class="cls-17" d="M245.19,386.14s8,5.05,12.28-2.71l31.07,16.49-48.4-.3Z"/><rect class="cls-18" x="262.21" y="377.69" width="4.23" height="48.4" transform="translate(-139.17 663.75) rotate(-89.65)"/><path class="cls-18" d="M261.15,391.5a.81.81,0,0,0,.34-.26,16.77,16.77,0,0,1,3.79-3.69.75.75,0,0,0,.22-1.07.85.85,0,0,0-1.12-.22,18,18,0,0,0-4.2,4.07.75.75,0,0,0,.18,1.08A.85.85,0,0,0,261.15,391.5Z"/><path class="cls-18" d="M265.1,393.47a.81.81,0,0,0,.34-.26,16.77,16.77,0,0,1,3.79-3.69.75.75,0,0,0,.22-1.07.84.84,0,0,0-1.12-.22,18,18,0,0,0-4.2,4.07.75.75,0,0,0,.18,1.08A.85.85,0,0,0,265.1,393.47Z"/><path class="cls-18" d="M269.06,395.45a.81.81,0,0,0,.34-.26,16.78,16.78,0,0,1,3.79-3.69.75.75,0,0,0,.22-1.07.84.84,0,0,0-1.12-.22,18,18,0,0,0-4.2,4.07.75.75,0,0,0,.18,1.08A.85.85,0,0,0,269.06,395.45Z"/><path class="cls-2" d="M257.93,188.7s3.69,23.23,3.58,104.1l2.62,83.73H238.84L235,293.65l-5.35-74h-10V188.7Z"/><path class="cls-2" d="M198.93,188.7s-3.69,24.16-3.58,105l-2.62,82.8H218l2.88-82.88,6.32-74h10V188.7Z"/><line class="cls-19" x1="216.87" y1="219.64" x2="236.26" y2="219.64"/><path class="cls-15" d="M195,175.85l-11,50.93-7.23-.37s2.32-31.51,5-52.57c.43-3.34,4.73-6.07,8-5.38h0C192.92,169.11,195.63,172.76,195,175.85Z"/><path class="cls-15" d="M183.19,223.42a16.2,16.2,0,0,1,1.36,12.69l1.63,6.95a2.33,2.33,0,0,1-1.23,2.65h0a2,2,0,0,1-2.67-1.12l-1.62-3.92-.17,1.5a11.22,11.22,0,0,0,1.36,6.81l3.28,5.76a2.27,2.27,0,0,1,0,2.17h0a1.9,1.9,0,0,1-3.25.33l-5.2-6.95a12.7,12.7,0,0,1-2.27-9.66l3.08-18.53Z"/><polygon class="cls-15" points="181.8 173.83 188.22 130.31 203.15 135.16 194.83 176.46 181.8 173.83"/><path class="cls-20" d="M204.31,112.23s-10.08,1.2-15.26,14.56-11.57,27.44-11.57,27.44L200,166.81Z"/><path class="cls-15" d="M270.94,183.18l49.29-26.84-3-10.48s-34.35,14.63-53,24.81c-3,1.61-3.93,7.59-2.08,10.41h0C263.9,183.71,268.29,184.91,270.94,183.18Z"/><polygon class="cls-15" points="275.01 174.03 264.8 130.31 249.87 135.16 261.61 179.91 275.01 174.03"/><path class="cls-20" d="M250.64,111.89s10.91,1.29,16.45,14.9c5.44,13.34,10.84,25.65,10.84,25.65l-21.74,13.47Z"/><path class="cls-20" d="M255.7,113.93c-3.87-2.4-10.16-3-10.16-3l-17.48,1.76-17.48-1.76s-6.29.6-10.16,3l-.14,40.26-7.81,55.34,71.65.39-8.22-55Z"/><path class="cls-15" d="M204.31,112.23l20.6-5.41H232l18.63,5.07h0c-9.53,8.93-33.17,16.25-45.27.76Z"/><polyline class="cls-21" points="198.79 165.92 200.04 153.03 198.56 133.67"/><polyline class="cls-21" points="257.18 164.92 256.02 153.03 257.94 133.49"/><path class="cls-22" d="M258.66,93.69a13.41,13.41,0,0,1,.35-5,22,22,0,0,0-4.58-20.19C250.56,63.88,249.6,57,249.6,57h0c-2.84-9.36-12.46-15.85-21.22-15.85S210,47.24,207.18,56.6h0s-1.28,7.41-4.86,12c-4.14,5.26-6.7,12.07-4.58,20.19a13.41,13.41,0,0,1,.35,5,6.81,6.81,0,0,1-1.18,3.37h62.93A6.81,6.81,0,0,1,258.66,93.69Z"/><path class="cls-15" d="M234.67,88.35a14.76,14.76,0,0,1-5.1,3c-2.43.6-4.8-1.24-4.83-1.26L221.9,88l-1.14,20.28.32.34c4.13,4.43,10.07,4.5,14.24.15l.61-.64Z"/><path class="cls-7" d="M220,85.33s3.42,11.85,9.52,11.73c5-.1,6.41-11.14,6.41-11.14Z"/><path class="cls-15" d="M245.35,64.54A70.48,70.48,0,0,1,243.44,81c-1,4-3.67,6.81-7.53,9.08l-.7.41a13.94,13.94,0,0,1-13.53.21h0c-4.2-2.29-7.15-5.32-8.07-9.61a102.92,102.92,0,0,1-1.9-16.43s-1.4-18,16.74-17.79S245.35,64.54,245.35,64.54Z"/><polyline class="cls-16" points="227.07 74.41 227.07 77.05 228.85 77.05"/><path d="M214.74,64.39l9.59-.86s-.86-2.49-4.74-2.08S214.74,64.39,214.74,64.39Z"/><path d="M241.11,64.39l-9.59-.86s.86-2.49,4.74-2.08S241.11,64.39,241.11,64.39Z"/><path class="cls-18" d="M222.72,79.49h10.48s-.4,2.73-5.42,2.73C223.65,82.22,222.72,79.49,222.72,79.49Z"/><path class="cls-23" d="M223.21,70.86s-2.48-2-4.66,0"/><path class="cls-23" d="M237.23,70.86a3.24,3.24,0,0,0-4.54,0"/><path class="cls-24" d="M218.56,64.22l7,9.55s-2.12,4.05-5.5,3.6L213,68.06S214.91,64,218.56,64.22Z"/><path class="cls-24" d="M235.85,64.22l7,9.55s-2.12,4.05-5.5,3.6l-7.1-9.31S232.21,64,235.85,64.22Z"/><circle class="cls-25" cx="219.27" cy="70.86" r="6.88"/><circle class="cls-25" cx="236.58" cy="70.86" r="6.88"/><path class="cls-25" d="M226.15,70.86a5.36,5.36,0,0,1,3.56,0"/><path class="cls-22" d="M210,60.44s16.17-3.08,19.51-15.15C229.47,45.29,212.26,39.18,210,60.44Z"/><path class="cls-22" d="M245.35,60.44s-16.17-3.08-19.51-15.15C225.83,45.29,243,39.18,245.35,60.44Z"/><polygon class="cls-26" points="471.42 382.67 453.4 382.67 423.6 398.61 474.84 398 471.42 382.67"/><path class="cls-7" d="M462.27,401.68a3.17,3.17,0,0,1,3.1,3.17l9.65-.11-.18-6.74-51.24.61.18,6.74,35.39-.43h0A3.17,3.17,0,0,1,462.27,401.68Z"/><line class="cls-27" x1="440.94" y1="388.54" x2="446.85" y2="390.15"/><line class="cls-27" x1="446.71" y1="385.58" x2="452.62" y2="387.19"/><rect class="cls-28" x="453.05" y="357.26" width="18.37" height="25.41"/><polygon class="cls-26" points="503.88 382.67 521.9 382.67 551.7 398.61 500.46 398 503.88 382.67"/><path class="cls-7" d="M513,401.68a3.17,3.17,0,0,0-3.1,3.17l-9.65-.11.18-6.74,51.24.61-.18,6.74-35.39-.43h0A3.17,3.17,0,0,0,513,401.68Z"/><line class="cls-27" x1="534.35" y1="388.54" x2="529.37" y2="391.07"/><line class="cls-27" x1="528.58" y1="385.58" x2="524.51" y2="387.19"/><polygon class="cls-28" points="520.28 357.26 501.92 357.26 503.88 382.67 522.25 382.67 520.28 357.26"/><path class="cls-29" d="M513.79,165.57c1.38,14.73,12.42,209.77,12.42,209.77H497.54L485,202.1l-5.17.1-3.34,173.14h-27.4s-1.56-181,.11-209.31Z"/><line class="cls-21" x1="472.57" y1="202.23" x2="493.58" y2="202.23"/><path class="cls-26" d="M470.33,6s7.94-10.75,22-3.58c15.43,7.86,7.09,24.81,7.09,24.81L466.29,21Z"/><path class="cls-26" d="M463.7,27.36S455,10.33,470.33,6l2.75,9.13Z"/><circle class="cls-15" cx="464.9" cy="35.39" r="6.16" transform="translate(-0.81 13.15) rotate(-1.62)"/><path class="cls-16" d="M461.4,34.53s2.45-1.19,4.78,3.06"/><circle class="cls-15" cx="499.71" cy="35.39" r="6.16"/><path class="cls-16" d="M503.18,34.43s-2.48-1.12-4.7,3.2"/><path class="cls-15" d="M490.21,49.59a20.81,20.81,0,0,1-6.64,3.06,10.11,10.11,0,0,1-6.28-1.25l-3.7-2.13-1.51,20.28.41.34A14.68,14.68,0,0,0,491,70l.79-.64Z"/><path class="cls-7" d="M472.08,47.13s3.45,11.3,11.4,11.17c6.53-.1,7.58-11.17,7.58-11.17Z"/><path class="cls-15" d="M498.94,24.67A76.77,76.77,0,0,1,497,41.92c-1,4.18-4.63,7.11-8.48,9.48l-.7.43c-4.08,2.51-7.45,2.59-11.62.22h0c-4.2-2.39-8.11-5.56-9-10a112.21,112.21,0,0,1-1.91-17.17S462.93,6,481.08,6.25,498.94,24.67,498.94,24.67Z"/><circle class="cls-7" cx="474.29" cy="30.19" r="1.47"/><circle class="cls-7" cx="488.7" cy="30.19" r="1.47"/><polyline class="cls-16" points="480.16 34.03 480.16 36.39 482.07 36.39"/><path d="M468.82,24l9.59-.86s-.86-2.49-4.74-2.08S468.82,24,468.82,24Z"/><path d="M493.55,24,484,23.12s.86-2.49,4.74-2.08S493.55,24,493.55,24Z"/><path class="cls-18" d="M476.88,39.74h9.46s-.44,2.9-4.87,2.9S476.88,39.74,476.88,39.74Z"/><path class="cls-26" d="M465.92,33.75s.71-23.07.42-23.73C466.33,10,458.15,17.58,465.92,33.75Z"/><path class="cls-26" d="M498.26,33.59,497,8.53S504.9,16.35,498.26,33.59Z"/><path class="cls-26" d="M473.51,8S467.88,9.5,468.07,15s-3.55,11-3.55,11l-1.71-5.52S461.5,10.17,473.51,8Z"/><path class="cls-26" d="M472.09,8.43s4.21-2.39,8.4,2.87c3.57,4.49,13,9.12,18.57,4.72,0,0-3.55-12.72-17.42-12.46S472.09,8.43,472.09,8.43Z"/><path class="cls-30" d="M452.45,77.24c-27.94,14-51,40-51,40l15,18.07,42.25-26.84Z"/><polygon class="cls-15" points="528.42 185.08 536.83 206.51 543.33 205.82 538.4 178.1 528.42 185.08"/><path class="cls-15" d="M536.51,203.14a16.81,16.81,0,0,0-.6,13.23l-1.24,7.3a2.42,2.42,0,0,0,1.44,2.66h0a2.06,2.06,0,0,0,2.7-1.33l1.43-4.17.27,1.54a11.65,11.65,0,0,1-1,7.14l-3,6.18a2.36,2.36,0,0,0,.11,2.24h0a2,2,0,0,0,3.38.13l4.94-7.53a13.17,13.17,0,0,0,1.73-10.15l-4.38-19Z"/><path class="cls-30" d="M509.08,76.41s9.84,2.48,15.08,17.25c10.5,29.61,21.39,108.93,21.39,108.93l-18.8,3.54L500.4,104.51Z"/><path class="cls-30" d="M502.94,73.68l8.43,3.75A9.49,9.49,0,0,1,517,86.06l.3,91.45H446.64V86a9.49,9.49,0,0,1,5.82-8.75l8.6-3.61Z"/><path class="cls-15" d="M482.5,64.82l20.44,8.86s-21,19-41.88,0Z"/><path class="cls-31" d="M461.06,73.63a28.44,28.44,0,0,0,20.89,8.61,28.89,28.89,0,0,0,21-8.57"/><line class="cls-21" x1="517.26" y1="167.09" x2="517.06" y2="106.3"/><line class="cls-21" x1="446.64" y1="116.2" x2="446.64" y2="106"/><path class="cls-7" d="M370.52,32s9.08-4,12.3,3.6C385.92,43,373.61,50,373.61,50Z"/><circle class="cls-32" cx="347.38" cy="62.75" r="6.16" transform="translate(-1.63 9.84) rotate(-1.62)"/><path class="cls-33" d="M343.88,61.88s2.45-1.19,4.78,3.06"/><circle class="cls-32" cx="382.19" cy="62.75" r="6.16"/><path class="cls-33" d="M385.67,61.79s-2.48-1.12-4.7,3.2"/><path class="cls-32" d="M372.69,76.95A20.81,20.81,0,0,1,366.05,80a10.11,10.11,0,0,1-6.28-1.25l-3.7-2.13L354.56,96.9l.41.34a14.68,14.68,0,0,0,18.53.13l.79-.64Z"/><path class="cls-7" d="M354.56,74.49S358,85.79,366,85.66c6.53-.1,7.58-11.17,7.58-11.17Z"/><path class="cls-32" d="M381.42,52a76.77,76.77,0,0,1-1.9,17.25c-1,4.18-3.67,7.11-7.53,9.48l-.7.43a13.42,13.42,0,0,1-13.53.22h0c-4.2-2.39-7.15-5.56-8.08-10a112.2,112.2,0,0,1-1.91-17.17s-2.37-18.84,15.78-18.59S381.42,52,381.42,52Z"/><circle class="cls-7" cx="356.78" cy="57.55" r="1.47"/><circle class="cls-7" cx="371.18" cy="57.55" r="1.47"/><polyline class="cls-33" points="362.65 59.69 362.65 63.74 365.26 63.74"/><path d="M351.31,51.34l9.59-.86S360,48,356.16,48.4,351.31,51.34,351.31,51.34Z"/><path d="M376,51.34l-9.59-.86s.86-2.49,4.74-2.08S376,51.34,376,51.34Z"/><path class="cls-18" d="M359.36,67.1h9.46S368.38,70,364,70,359.36,67.1,359.36,67.1Z"/><path class="cls-7" d="M348.4,61.11s2.69-20.37,1.37-23.73C349.77,37.38,340.63,44.94,348.4,61.11Z"/><path class="cls-7" d="M380.74,60.95s-3-19.46-2.18-25.05C378.55,35.89,387.38,43.71,380.74,60.95Z"/><path class="cls-7" d="M377.92,34.5l-8.37-1.27-.74-1.45-4.42.67L360,31.79l-.74,1.45-8.37,1.27L349.77,39l.28,5.16s1.32-5.85,5.93-4.69c1.09.27,2.39.73,3.91,1a20.64,20.64,0,0,0,4.05.47h.92a20.64,20.64,0,0,0,4.05-.47,30.55,30.55,0,0,0,3.91-1c4.27-1.49,5.85,4.42,5.85,4.42L379,39Z"/><path class="cls-7" d="M377.76,39.6a11.13,11.13,0,0,1-12.41,1.12s-17.73,10.92-22.74-1c-4.17-9.91,13.15-23.37,31-8.21Z"/><polygon class="cls-32" points="385.95 350.85 388.82 386.53 404.58 387.02 404.62 344.71 385.95 350.85"/><path id="_Clipping_Path_7" data-name="&lt;Clipping Path&gt;" class="cls-1" d="M388.51,382.75s10.93,6.37,16.38-3.61l40,21.23L382.6,400Z"/><g class="cls-34"><path class="cls-18" d="M437.77,387.71s-15.38,2.3-14.19,21.42l26.61-7.29Z"/></g><rect class="cls-18" x="411" y="371.75" width="5.45" height="62.29" transform="translate(8.31 814.15) rotate(-89.65)"/><path class="cls-18" d="M409.64,389.52a1,1,0,0,0,.43-.33,21.58,21.58,0,0,1,4.88-4.75,1,1,0,0,0,.29-1.38,1.09,1.09,0,0,0-1.45-.28,23.16,23.16,0,0,0-5.41,5.24,1,1,0,0,0,.23,1.39A1.09,1.09,0,0,0,409.64,389.52Z"/><path class="cls-18" d="M414.73,392.07a1,1,0,0,0,.43-.33A21.58,21.58,0,0,1,420,387a1,1,0,0,0,.29-1.38,1.08,1.08,0,0,0-1.45-.28,23.16,23.16,0,0,0-5.41,5.24,1,1,0,0,0,.23,1.39A1.09,1.09,0,0,0,414.73,392.07Z"/><path class="cls-18" d="M419.81,394.61a1,1,0,0,0,.43-.33,21.59,21.59,0,0,1,4.88-4.75,1,1,0,0,0,.29-1.38,1.08,1.08,0,0,0-1.45-.28,23.17,23.17,0,0,0-5.41,5.24,1,1,0,0,0,.23,1.39A1.09,1.09,0,0,0,419.81,394.61Z"/><polygon class="cls-32" points="349.85 350.85 350.8 386.53 335.03 387.02 331.17 344.71 349.85 350.85"/><path id="_Clipping_Path_8" data-name="&lt;Clipping Path&gt;" class="cls-1" d="M350.83,382.75s-10.93,6.37-16.38-3.61l-40,21.23,62.29-.38Z"/><g class="cls-35"><path class="cls-18" d="M301.58,387.71S317,390,315.77,409.13l-26.61-7.29Z"/></g><rect class="cls-18" x="294.47" y="400.17" width="62.29" height="5.45" transform="translate(-2.46 2) rotate(-0.35)"/><path class="cls-18" d="M329.71,389.52a1,1,0,0,1-.43-.33,21.58,21.58,0,0,0-4.88-4.75,1,1,0,0,1-.29-1.38,1.09,1.09,0,0,1,1.45-.28A23.16,23.16,0,0,1,331,388a1,1,0,0,1-.23,1.39A1.09,1.09,0,0,1,329.71,389.52Z"/><path class="cls-18" d="M324.62,392.07a1,1,0,0,1-.43-.33,21.58,21.58,0,0,0-4.88-4.75,1,1,0,0,1-.29-1.38,1.08,1.08,0,0,1,1.45-.28,23.16,23.16,0,0,1,5.41,5.24,1,1,0,0,1-.23,1.39A1.09,1.09,0,0,1,324.62,392.07Z"/><path class="cls-18" d="M319.53,394.61a1,1,0,0,1-.43-.33,21.59,21.59,0,0,0-4.88-4.75,1,1,0,0,1-.29-1.38,1.08,1.08,0,0,1,1.45-.28,23.17,23.17,0,0,1,5.41,5.24,1,1,0,0,1-.23,1.39A1.09,1.09,0,0,1,319.53,394.61Z"/><path class="cls-36" d="M367.12,213.3l14,155H409L398.46,183,363.93,180l-28.57-1.41-11.55,98.12A15,15,0,0,0,339,293.21h0A15,15,0,0,0,353.45,281Z"/><line class="cls-37" x1="354.68" y1="211.79" x2="372.6" y2="214.07"/><polygon class="cls-38" points="414.56 370.97 377.86 370.97 376.09 354.34 412.79 354.34 414.56 370.97"/><polygon class="cls-36" points="353.45 281.02 355.16 365.87 325.78 365.87 323.81 276.67 353.45 281.02"/><rect class="cls-38" x="322.02" y="354.34" width="36.69" height="16.63"/><path class="cls-39" d="M395.1,104.93l-20.8-8.2-19.73.17-26,12.17c-2,1.22-1.65,3.69-.91,6l5.88,69.54,65.25-.9L403,113C403.57,110.69,397.25,106,395.1,104.93Z"/><path class="cls-32" d="M354.56,96.9l-5.81,2.67s-.06,9.75,15.73,9.24c16.2-.52,16.16-9.7,16.16-9.7l-6.35-2.39Z"/><polygon class="cls-32" points="429.42 148.38 385.55 127.43 407.3 114.49 426.78 126.55 429.42 148.38"/><path class="cls-32" d="M421.28,80.1,429.77,77l15,59.24a10.4,10.4,0,0,1-8.88,13.63h0a10.4,10.4,0,0,1-11.28-8.9Z"/><path class="cls-32" d="M421.28,80.1l-4-4.47a20.08,20.08,0,0,1-4.48-8.16l-1.47-5.34a2.13,2.13,0,0,1,1.84-2.68h0a2.72,2.72,0,0,1,2.69,1.44l2.74,5.21.76-23a1.65,1.65,0,0,1,1.88-1.61l.66.09a1.65,1.65,0,0,1,1.42,1.53l0,13.64,2.19-15.67a1.65,1.65,0,0,1,2-1.49l.48.1a1.65,1.65,0,0,1,1.32,1.74l-1.8,16.37L431.24,45a1.65,1.65,0,0,1,2.36-1l.19.1a1.65,1.65,0,0,1,.85,1.76l-2.56,13.8,2.63-8.13a1.65,1.65,0,0,1,2.71-.69h0a1.65,1.65,0,0,1,.47,1.55l-6.82,30.51Z"/><path class="cls-33" d="M418.54,66.09a10.83,10.83,0,0,1,6.77,6.25"/><line class="cls-33" x1="423.66" y1="125.54" x2="424.56" y2="136.82"/><path class="cls-39" d="M392.19,103.95c16.27,4.94,27.53,18.24,27.53,18.24l-12.24,24.29-28.1-13Z"/><line class="cls-39" x1="401.18" y1="143.55" x2="393.2" y2="139.85"/><path class="cls-32" d="M315.76,131.61l-9.9,35.64c-1.12,5.67,5.58,12.09,11,13.54h0c5.37,1.42,4.23-2.78,5.64-8.3L336,138.77Z"/><path class="cls-32" d="M306.82,171.38c1.75,7.28,24.75,23.34,24.75,23.34l13.18.12-23.92-33Z"/><path class="cls-32" d="M348.84,198.33a11.69,11.69,0,0,0,6.66,1,2,2,0,0,0,.49-3.7c-4.31-2.22-13.37-7.39-16.95-8.69l-6.22-1.73L327,191l4.6,3.67s1.11,5.83,3.35,7.81C334.92,202.53,344.66,204,348.84,198.33Z"/><line class="cls-33" x1="324.67" y1="167.09" x2="320.83" y2="161.79"/><path class="cls-39" d="M328.54,109.07s-16.4,5.48-19.78,34.61l32.46,9.67,9-28.17Z"/><line class="cls-21" x1="330.96" y1="150.92" x2="329.5" y2="134.74"/><path class="cls-15" d="M341.11,103.21s-3.31,1.77-.71,6.91h0a6.39,6.39,0,0,1-2.25,8.25l-5.72,3.68a6.37,6.37,0,0,1-9.17-2.51c-1.12-2.3-1.84-4.91-1-7.15C324.33,107,336.4,100.79,341.11,103.21Z"/><polygon class="cls-40" points="85.64 371.56 85.64 396.31 97.14 396.7 97.92 363.82 85.64 371.56"/><path id="_Clipping_Path_9" data-name="&lt;Clipping Path&gt;" class="cls-1" d="M85.1,393.28s8,5.05,12.28-2.71l31.07,16.49-48.4-.3Z"/><g class="cls-41"><path class="cls-18" d="M122.93,397.23S111,399,111.9,413.88l20.68-5.67Z"/></g><rect class="cls-18" x="102.13" y="384.83" width="4.23" height="48.4" transform="translate(-305.41 510.77) rotate(-89.65)"/><path class="cls-18" d="M101.07,398.64a.81.81,0,0,0,.34-.26,16.77,16.77,0,0,1,3.79-3.69.75.75,0,0,0,.22-1.07.85.85,0,0,0-1.12-.22,18,18,0,0,0-4.2,4.07.75.75,0,0,0,.18,1.08A.85.85,0,0,0,101.07,398.64Z"/><path class="cls-18" d="M105,400.62a.81.81,0,0,0,.34-.26,16.76,16.76,0,0,1,3.79-3.69.75.75,0,0,0,.22-1.07.84.84,0,0,0-1.12-.21,18,18,0,0,0-4.2,4.07.75.75,0,0,0,.18,1.08A.85.85,0,0,0,105,400.62Z"/><path class="cls-18" d="M109,402.59a.81.81,0,0,0,.34-.26,16.78,16.78,0,0,1,3.79-3.69.75.75,0,0,0,.22-1.07.84.84,0,0,0-1.12-.21,18,18,0,0,0-4.2,4.07.75.75,0,0,0,.18,1.08A.85.85,0,0,0,109,402.59Z"/><path class="cls-42" d="M91.75,184.06s20.55,24.36,13.93,89.48l-5.29,108.62H62.53l10.2-198.1Z"/><polygon class="cls-40" points="62.53 371.56 62.53 396.31 51.02 396.7 50.24 363.82 62.53 371.56"/><path id="_Clipping_Path_10" data-name="&lt;Clipping Path&gt;" class="cls-1" d="M63.06,393.28s-8,5.05-12.28-2.71L19.7,407.06l48.4-.3Z"/><g class="cls-43"><path class="cls-18" d="M25.24,397.23s11.95,1.79,11,16.64l-20.68-5.67Z"/></g><rect class="cls-18" x="19.72" y="406.91" width="48.4" height="4.23" transform="translate(-2.5 0.28) rotate(-0.35)"/><path class="cls-18" d="M47.09,398.64a.81.81,0,0,1-.34-.26A16.77,16.77,0,0,0,43,394.69a.75.75,0,0,1-.22-1.07.85.85,0,0,1,1.12-.22,18,18,0,0,1,4.2,4.07.75.75,0,0,1-.18,1.08A.85.85,0,0,1,47.09,398.64Z"/><path class="cls-18" d="M43.14,400.62a.81.81,0,0,1-.34-.26A16.76,16.76,0,0,0,39,396.67a.75.75,0,0,1-.22-1.07.84.84,0,0,1,1.12-.21,18,18,0,0,1,4.2,4.07.75.75,0,0,1-.18,1.08A.85.85,0,0,1,43.14,400.62Z"/><path class="cls-18" d="M39.18,402.59a.81.81,0,0,1-.34-.26,16.78,16.78,0,0,0-3.79-3.69.75.75,0,0,1-.22-1.07.84.84,0,0,1,1.12-.21,18,18,0,0,1,4.2,4.07.75.75,0,0,1-.18,1.08A.85.85,0,0,1,39.18,402.59Z"/><path class="cls-42" d="M55.26,184.06S34.7,208.42,41.32,273.54l5.29,108.62H65.15l9.13-198.1Z"/><path class="cls-44" d="M152.8,111.14l7.26,2.28L144.7,161.26a8.77,8.77,0,0,1-12.92,4.62h0a8.77,8.77,0,0,1-3-11.73Z"/><path class="cls-44" d="M153.1,109.55l.58-1.89a17,17,0,0,1,4-6.78l3.24-3.38a1.8,1.8,0,0,1,2.74.17h0a2.3,2.3,0,0,1,.12,2.57l-2.59,4.24,15-8.21a1.39,1.39,0,0,1,2,.66l.22.52a1.39,1.39,0,0,1-.5,1.69L168,105l12.31-5.19a1.39,1.39,0,0,1,1.93.78l.14.39a1.39,1.39,0,0,1-.69,1.71L171,107.92l8.93-2.17a1.39,1.39,0,0,1,1.76,1.27v.18a1.39,1.39,0,0,1-.91,1.38l-9.12,2.92,5-.42a1.39,1.39,0,0,1,1.67,1.66h0a1.39,1.39,0,0,1-.92,1l-23.07,7.06L153,115.53A10.83,10.83,0,0,1,153.1,109.55Z"/><path class="cls-45" d="M161.16,104.48a9.15,9.15,0,0,1-1.6,7.61"/><path class="cls-2" d="M100.17,113.62s12.44,3.15,31.33,32.17l8.77-25.07,20.05,9-13.57,36.4a14.26,14.26,0,0,1-23.06,5.5c-6-5.56-25-26.65-28.86-33.79Z"/><path class="cls-44" d="M38.56,179.79s9.51,2.68,4.46,13C38.46,202,30.56,204,24,202.42a1.82,1.82,0,0,1-1.18-2.56h0a1.83,1.83,0,0,1,1.69-1c2.37,0,6.61-.34,7.78-3.53,1.53-4.15-.64-8.7,1.77-13Z"/><polygon class="cls-44" points="38.56 179.79 32.84 170.32 24.42 175.06 34.7 186.26 38.56 179.79"/><path class="cls-2" d="M38.49,117.82s-16.14,8-36.15,28.34a8,8,0,0,0-2,7.89c1.53,5.1,6.74,13.61,23,24.74l14.16-7.21L25.15,155.1l23.66-9.81Z"/><polygon class="cls-18" points="102.36 199.69 46.56 200.34 52.99 114.38 96.06 114.38 102.36 199.69"/><path class="cls-2" d="M45.92,114.38l-7.43,3.44s11,40-4.92,101.62l13.75,3.18S62.19,178,60.84,117.82Z"/><path class="cls-2" d="M101.75,114.52l3.46,1.6a5.43,5.43,0,0,1,3.05,6c-2.27,11.7-7.08,47.47,5.84,97.49l-13.75,3.18S85.47,178.13,86.82,118Z"/><path class="cls-44" d="M81.06,98.93A16.56,16.56,0,0,1,75.44,102c-2.68.61-5.28-1.25-5.32-1.27L67,98.59l-1.26,15.5.35.34a10.91,10.91,0,0,0,15.68.14l.67-.64Z"/><path class="cls-44" d="M91.24,74.89a71.14,71.14,0,0,1-1.92,16.66c-1,4-3.71,6.87-7.6,9.16l-.71.42a14.07,14.07,0,0,1-13.66.21h0C63.11,99,60.14,96,59.2,91.65a103.89,103.89,0,0,1-1.92-16.59s-1.42-18.2,16.9-18S91.24,74.89,91.24,74.89Z"/><circle class="cls-7" cx="66.36" cy="80.31" r="1.48"/><circle class="cls-7" cx="80.91" cy="80.31" r="1.48"/><polyline class="cls-46" points="72.29 83.9 72.29 86.57 74.09 86.57"/><path d="M60.84,74.05l9.68-.87s-.87-2.51-4.78-2.1S60.84,74.05,60.84,74.05Z"/><path d="M85.8,74.05l-9.68-.87s.87-2.51,4.78-2.1S85.8,74.05,85.8,74.05Z"/><path class="cls-47" d="M67.85,88.72a8.07,8.07,0,0,0,6.41,1.38"/><path class="cls-18" d="M57.78,68.36s11.93-9.24,33.48,0c0,0-1.9-13.42-16.74-13.42S57.78,68.36,57.78,68.36Z"/><path class="cls-48" d="M97.62,73.5A25.2,25.2,0,0,0,82,52.54a20.76,20.76,0,0,0-15.43,0,25.2,25.2,0,0,0-15.85,21c-1.72,16.18,11,32.6,11,32.6l12.35-3,12.69,3S99.34,89.68,97.62,73.5ZM77.38,100.64a7.87,7.87,0,0,1-7,0C62,96.36,57.69,86.18,58.21,75c.29-6.28,4-10.68,7.84-13.54a13.42,13.42,0,0,1,16.19,0C86,64.33,89.8,68.73,90.09,75,90.61,86.23,85.92,96.44,77.38,100.64Z"/><path class="cls-48" d="M63,103,45.92,114.38s21.93,18.27,57.59,1L85.62,103Z"/><path class="cls-49" d="M61.71,104.27a15.51,15.51,0,0,0,12.37,3.94"/><path class="cls-49" d="M60.84,113.9A44.28,44.28,0,0,0,96.06,111"/><path class="cls-49" d="M66.91,103.63a14.47,14.47,0,0,0,11.84-3.31"/><path class="cls-49" d="M86.75,104.27s-1,2-4.32,2.46"/><path class="cls-24" d="M63.82,73.68l7,9.55s-2.12,4.05-5.5,3.6l-7.1-9.31S60.17,73.42,63.82,73.68Z"/><path class="cls-24" d="M81.11,73.68l7,9.55s-2.12,4.05-5.5,3.6l-7.1-9.31S77.47,73.42,81.11,73.68Z"/><circle class="cls-25" cx="64.53" cy="80.31" r="6.88"/><circle class="cls-25" cx="81.85" cy="80.31" r="6.88"/><path class="cls-25" d="M71.41,80.31a5.36,5.36,0,0,1,3.56,0"/></g></g></svg>